PathFileType	4	(X/Y/Z)	Apose_0-50.trc
DataRate	CameraRate	NumFrames	NumMarkers	Units	OrigDataRate	OrigDataStartFrame	OrigNumFrames
30	30	9	22	m	30	0	50
Frame#	Time	Hip			RHip			RKnee			RAnkle			RBigToe			RSmallToe			RHeel			LHip			LKnee			LAnkle			LBigToe			LSmallToe			LHeel			Neck			Head			Nose			RShoulder			RElbow			RWrist			LShoulder			LElbow			LWrist		
		X1	Y1	Z1	X2	Y2	Z2	X3	Y3	Z3	X4	Y4	Z4	X5	Y5	Z5	X6	Y6	Z6	X7	Y7	Z7	X8	Y8	Z8	X9	Y9	Z9	X10	Y10	Z10	X11	Y11	Z11	X12	Y12	Z12	X13	Y13	Z13	X14	Y14	Z14	X15	Y15	Z15	X16	Y16	Z16	X17	Y17	Z17	X18	Y18	Z18	X19	Y19	Z19	X20	Y20	Z20	X21	Y21	Z21	X22	Y22	Z22
1	0.03333333333333333	0.0503704353674123	0.8880242480633619	0.37404892666133965	0.05079721292108623	0.8887478978263287	0.48548442169873296	0.028757665241550875	0.4913021755962391	0.5134211419018951	-0.003621773051045968	0.10894203101588433	0.5194766820600127	0.0	0.0	0.0	0.0	0.0	0.0	0.0	0.0	0.0	0.05014575550174465	0.8881850480199082	0.2624437775886505	0.04697367579295324	0.506713566401814	0.23228054162210626	0.008248460516375622	0.1273317403707462	0.21241241180371373	0.0	0.0	0.0	0.0	0.0	0.0	0.0	0.0	0.0	0.024164132431756986	1.4731623830683744	0.36571437751402647	0.2239705234282127	1.774141714328555	0.35678637710675576	0.26927098491173945	1.6810152501658087	0.34052532218631903	0.04072523116748987	1.4752821497800863	0.5719658875315342	0.09919465503511023	1.235472000097792	0.7284866096487915	0.18043152923922248	1.0382193128260704	0.8907879754156358	0.001806410121761435	1.4685682623981835	0.16637663428122454	0.01767056384107122	1.2261334517364708	0.02028488274004467	0.08038381688591004	1.025567485792802	-0.1350078305852957
2	0.06666666666666667	0.0542630921522496	0.8808962274569109	0.3740097873267102	0.05367249638621003	0.8816666657023202	0.48600260375179233	0.030028567373122594	0.4855154988706507	0.5080596711966033	-0.0035417441098935473	0.11599644938138863	0.5151450678024313	0.0	0.0	0.0	0.0	0.0	0.0	0.0	0.0	0.0	0.05488335382451478	0.8810973036619494	0.26199257943281107	0.043854213228937705	0.5001608916883036	0.2315291391098155	0.01260852450985271	0.1251731345957346	0.21651363805855253	0.0	0.0	0.0	0.0	0.0	0.0	0.0	0.0	0.0	0.027053730992789692	1.4698035266468437	0.3646803098739484	0.25093017950800195	1.7750399745411582	0.33036081947410517	0.2713244369198147	1.67353028961928	0.3372400582726885	0.035375805028530605	1.4815410286130402	0.5614781063137023	0.10236561011333413	1.2324529499754744	0.730289297131027	0.17971848163976284	1.0342505276778922	0.8947052658035736	0.006775272929895783	1.4663171503386565	0.16244463793313646	0.021201262071599784	1.219991709886069	0.012157238789515317	0.08657127564242877	1.0182239594181643	-0.1329737926670556
3	0.1	0.038346878777139895	0.8845977271255674	0.3700185616457114	0.036464072980085346	0.8871219951971809	0.4807060225064806	0.0046676413557896045	0.5059689870313546	0.4999948472266699	-0.00253768952059595	0.10195497069862773	0.5149210170737861	0.0	0.0	0.0	0.0	0.0	0.0	0.0	0.0	0.0	0.04044380132502813	0.8834408669230636	0.25931613302216755	0.03936608062625365	0.5011962954609545	0.22946884565396505	0.005024132330136302	0.12866901199254466	0.20879372542584818	0.0	0.0	0.0	0.0	0.0	0.0	0.0	0.0	0.0	0.02844991803385315	1.4740441788554477	0.3623734333657308	0.31353477309033684	1.7356670924366657	0.35285957977991556	0.32166740022920726	1.6303827141181897	0.3486445781117299	0.04030182900453065	1.486442400748184	0.5560368535344935	0.0888250230606701	1.2364895683479031	0.725357266185053	0.1476099157133488	1.041041464757039	0.8998162191753587	0.011489864311303067	1.4729885259944036	0.16179627029226418	0.0024934571679017144	1.2111023120127569	-0.0009444796805379239	0.06930450300884707	1.026019968943189	-0.13469780495764241
4	0.13333333333333333	0.036720627619468274	0.8840203770372087	0.3680111507950669	0.036541097840702835	0.8847780250615455	0.48030017305791783	0.0024411061017061866	0.504387467517051	0.501198972218614	-0.00519859508795618	0.10589837771430764	0.5161914522781503	0.0	0.0	0.0	0.0	0.0	0.0	0.0	0.0	0.0	0.03705242352416803	0.8846947748550041	0.2555965693139804	0.021524333898516795	0.4828048443203918	0.22229249256302697	-0.00442333654074505	0.11645620578750662	0.2087374172165759	0.0	0.0	0.0	0.0	0.0	0.0	0.0	0.0	0.0	0.03221622617224623	1.474737214808109	0.3574541716738669	0.31958898965114896	1.7322284776548245	0.3543043340773582	0.2328079120009106	1.5854420605649262	0.3339244291230328	0.03674264539108635	1.4877204696672044	0.553738418345567	0.08506037675740422	1.239826117388682	0.7233675925902688	0.153468195162358	1.0340107662959979	0.8974761211352285	0.019673792766233877	1.4742488080901124	0.1535739720566868	0.0012299414882372122	1.209345707942519	-0.004085198632449339	0.06532388211831058	1.0211130608627201	-0.1354565497027083
5	0.16666666666666666	0.033799386229348256	0.8935959635542615	0.36953453742230313	0.03380620685791229	0.8950843911497783	0.4817311013208831	0.0014320832955982657	0.5074685140491633	0.500216908160405	-0.006785742995989005	0.10491800254291328	0.5161482322740686	0.0	0.0	0.0	0.0	0.0	0.0	0.0	0.0	0.0	0.03414270762296443	0.893509904886239	0.257158946695511	0.03771270595581263	0.5059548458206192	0.22748680258315457	0.005466014388634449	0.1257435561656091	0.20590162220092942	0.0	0.0	0.0	0.0	0.0	0.0	0.0	0.0	0.0	0.03527968888889731	1.4752374110190742	0.3550331219953682	0.3229296810181514	1.7322628431485343	0.351399467353111	0.23294639316954155	1.5818161765514993	0.33525315638980563	0.04091470769303562	1.4898835961722336	0.5497841745488263	0.08556376832708264	1.2423657152018994	0.7236992576461938	0.1512691053895881	1.034885651372669	0.8978728593358111	0.022908499208927936	1.4728825672436088	0.15115448007108626	0.001314096717600592	1.2116907997014088	-0.001659650825710931	0.05929422613426636	1.025358908262066	-0.13589708927125366
6	0.2	0.03280420013599742	0.8871616142160785	0.36627617378225147	0.03289939179940544	0.8882045983913817	0.477634229453397	0.001639495807618563	0.5044888855129094	0.5017361367917149	-0.007618205784568749	0.10594271373903089	0.5144675752683061	0.0	0.0	0.0	0.0	0.0	0.0	0.0	0.0	0.0	0.03292251855753663	0.8875220284087755	0.25494234924117953	0.009905016291373728	0.501457531084012	0.2249685311627463	0.003253799054075243	0.128316036881494	0.20915115470764478	0.0	0.0	0.0	0.0	0.0	0.0	0.0	0.0	0.0	0.03172109949036027	1.4765409099976206	0.35479301361657417	0.324920074462395	1.7290416515849412	0.3529994954573211	0.3305494431982066	1.622907386012389	0.3506485842719306	0.037237666867783174	1.4905398667926857	0.5484464528632923	0.08251198779859281	1.2411342622585877	0.7216891779266073	0.14966578053374177	1.0351223926481046	0.8985769210047526	0.01970441982170919	1.4749358920760929	0.15269105763624333	-0.005186856505122093	1.2092950350592635	0.0003860681660214063	0.0526727106165632	1.0186242197150037	-0.1427286287541191
7	0.23333333333333334	0.0343372592983406	0.8878339886423688	0.36370147985108614	0.0331032635173957	0.8867495390063876	0.47609349338049833	-0.0012118020230003036	0.5069869033279943	0.5041316129814223	-0.013001841882105864	0.11797040059350568	0.519229863864157	0.0	0.0	0.0	0.0	0.0	0.0	0.0	0.0	0.0	0.035937580155478946	0.8904082267448608	0.25141557371050505	0.008949632176822708	0.5017718547650531	0.22507372850882493	0.0027763755808935704	0.129144263712233	0.21067972253655176	0.0	0.0	0.0	0.0	0.0	0.0	0.0	0.0	0.0	0.0339854208746161	1.4765359825377096	0.3544790718221615	0.32519489634356186	1.7266877482804266	0.3537473305197197	0.2435993167891878	1.5779155775741214	0.33216764140441923	0.03968986205150615	1.493607262948652	0.5514259588253757	0.05758985052147572	1.2397686870612115	0.7145462593963415	0.1348441310731308	1.0471784499504047	0.8971121205166143	0.021414929267477813	1.4733836033333831	0.1494056515202821	-0.00046305504712332394	1.207809741684167	-0.002210978151505329	0.059007163521746536	1.0246494571567006	-0.1355401338407784
8	0.26666666666666666	0.031155166084683914	0.8899051730102742	0.3604285321900059	0.029872635924538354	0.8887483328531587	0.47262610918729353	-0.004060738330121425	0.5084398288544075	0.5027803908211236	-0.01778352135288246	0.11648465742048354	0.5187073614665709	0.0	0.0	0.0	0.0	0.0	0.0	0.0	0.0	0.0	0.032860367072905676	0.8925026543498819	0.2483176044287276	0.015142610858247535	0.4916628832137098	0.21372837755905622	0.0051244864234393115	0.133386805297738	0.2060074984037245	0.0	0.0	0.0	0.0	0.0	0.0	0.0	0.0	0.0	0.033968848628301795	1.4770199315557395	0.3518294798350578	0.2441636500610202	1.6818465332526795	0.33610209728411994	0.24332664236585697	1.577510653602948	0.33354500108199353	0.04005440451982574	1.4938190080056473	0.5481126754884135	0.0560024999095358	1.2403722329720748	0.712240862067568	0.1449643776246292	1.0336751035995178	0.8988606125896232	0.020092204115310684	1.4746845872946206	0.14966784697778143	-0.003266333403174174	1.2067022180150773	-0.0019752166534319454	0.060145179716622796	1.0242132912697512	-0.14584341965518932
9	0.3	0.0293965479420012	0.8937287197711766	0.3638355735958422	0.028701026499690203	0.894074852959161	0.47699331772014797	0.011674860214856484	0.48579906379510746	0.5092260811326472	-0.010163857116662284	0.09879700775741913	0.5111051744235164	0.0	0.0	0.0	0.0	0.0	0.0	0.0	0.0	0.0	0.03059488840142879	0.8947845751280699	0.25059732688181324	0.006603684955850868	0.5050817019918621	0.22627595137586562	0.004876691617545648	0.13119213063670265	0.20519007668229763	0.0	0.0	0.0	0.0	0.0	0.0	0.0	0.0	0.0	0.032605727652702435	1.477209399600284	0.3529923940044467	0.24270389865636752	1.682333136034478	0.3335357281893869	0.24084885534449268	1.5791225517605205	0.3324950446464064	0.038419069024848436	1.4933539431866072	0.5475633932696599	0.05646873490862358	1.2438929661140812	0.7164908788298519	0.12654674082642967	1.0442705587544518	0.9025638191879867	0.020430370528233883	1.4746654097386631	0.14972270868741153	-0.0011099219781522702	1.2063194426394857	-0.005544307381989806	0.0580789906660191	1.0158577878208979	-0.14667897359496893
